<mxfile host="app.diagrams.net" modified="2024-01-23T04:27:49.212Z" agent="Mozilla/5.0 (Windows NT 10.0; Win64; x64; rv:121.0) Gecko/20100101 Firefox/121.0" etag="Gsfqc8PKqX6_NwOF24DZ" version="22.1.21" type="device">
  <diagram name="Page-1" id="YvsTHPCTIXLpTZI9YfE7">
    <mxGraphModel dx="1955" dy="596" grid="1" gridSize="10" guides="1" tooltips="1" connect="1" arrows="1" fold="1" page="1" pageScale="1" pageWidth="850" pageHeight="1100" math="0" shadow="0">
      <root>
        <mxCell id="0" />
        <mxCell id="1" parent="0" />
        <mxCell id="humndak8_3n1T79xHsqS-7" value="" style="endArrow=none;html=1;rounded=0;entryX=0.67;entryY=1;entryDx=0;entryDy=0;exitX=0.119;exitY=0;exitDx=0;exitDy=0;exitPerimeter=0;entryPerimeter=0;" edge="1" parent="1" target="humndak8_3n1T79xHsqS-28">
          <mxGeometry width="50" height="50" relative="1" as="geometry">
            <mxPoint x="259.03999999999996" y="320" as="sourcePoint" />
            <mxPoint x="170" y="275" as="targetPoint" />
          </mxGeometry>
        </mxCell>
        <mxCell id="humndak8_3n1T79xHsqS-8" value="" style="endArrow=none;html=1;rounded=0;entryX=0.5;entryY=1;entryDx=0;entryDy=0;exitX=0.363;exitY=0;exitDx=0;exitDy=0;exitPerimeter=0;" edge="1" parent="1">
          <mxGeometry width="50" height="50" relative="1" as="geometry">
            <mxPoint x="298.0799999999999" y="320" as="sourcePoint" />
            <mxPoint x="260" y="235" as="targetPoint" />
          </mxGeometry>
        </mxCell>
        <mxCell id="humndak8_3n1T79xHsqS-11" value="" style="endArrow=none;html=1;rounded=0;exitX=0.613;exitY=-0.02;exitDx=0;exitDy=0;entryX=0.693;entryY=1;entryDx=0;entryDy=0;exitPerimeter=0;entryPerimeter=0;" edge="1" parent="1" target="humndak8_3n1T79xHsqS-30">
          <mxGeometry width="50" height="50" relative="1" as="geometry">
            <mxPoint x="338.0799999999999" y="319" as="sourcePoint" />
            <mxPoint x="335" y="160" as="targetPoint" />
          </mxGeometry>
        </mxCell>
        <mxCell id="humndak8_3n1T79xHsqS-18" value="" style="endArrow=none;html=1;rounded=0;exitX=0.75;exitY=0;exitDx=0;exitDy=0;entryX=0.218;entryY=0.9;entryDx=0;entryDy=0;entryPerimeter=0;" edge="1" parent="1" target="humndak8_3n1T79xHsqS-27">
          <mxGeometry width="50" height="50" relative="1" as="geometry">
            <mxPoint x="360" y="320" as="sourcePoint" />
            <mxPoint x="404" y="237.5" as="targetPoint" />
          </mxGeometry>
        </mxCell>
        <mxCell id="humndak8_3n1T79xHsqS-26" value="&lt;font style=&quot;font-size: 18px;&quot;&gt;TelephoneNumber&lt;/font&gt;" style="ellipse;shape=doubleEllipse;margin=3;whiteSpace=wrap;html=1;align=center;" vertex="1" parent="1">
          <mxGeometry x="367.5" y="230" width="210" height="50" as="geometry" />
        </mxCell>
        <mxCell id="humndak8_3n1T79xHsqS-27" value="&lt;font style=&quot;font-size: 18px;&quot;&gt;IdentificationNumber&lt;/font&gt;" style="ellipse;whiteSpace=wrap;html=1;align=center;fontStyle=4;" vertex="1" parent="1">
          <mxGeometry x="315" y="160" width="220" height="50" as="geometry" />
        </mxCell>
        <mxCell id="humndak8_3n1T79xHsqS-28" value="&lt;font style=&quot;font-size: 18px;&quot;&gt;Name&lt;/font&gt;" style="ellipse;whiteSpace=wrap;html=1;align=center;" vertex="1" parent="1">
          <mxGeometry x="120" y="240" width="100" height="40" as="geometry" />
        </mxCell>
        <mxCell id="humndak8_3n1T79xHsqS-29" value="&lt;font style=&quot;font-size: 18px;&quot;&gt;Address&lt;/font&gt;" style="ellipse;whiteSpace=wrap;html=1;align=center;" vertex="1" parent="1">
          <mxGeometry x="207.5" y="200" width="100" height="40" as="geometry" />
        </mxCell>
        <mxCell id="humndak8_3n1T79xHsqS-30" value="&lt;font style=&quot;font-size: 18px;&quot;&gt;ContactPersonName&lt;/font&gt;" style="ellipse;whiteSpace=wrap;html=1;align=center;" vertex="1" parent="1">
          <mxGeometry x="147.5" y="120" width="220" height="40" as="geometry" />
        </mxCell>
        <mxCell id="humndak8_3n1T79xHsqS-32" value="" style="endArrow=none;html=1;rounded=0;exitX=0.819;exitY=0.02;exitDx=0;exitDy=0;exitPerimeter=0;entryX=0.388;entryY=1;entryDx=0;entryDy=0;entryPerimeter=0;" edge="1" parent="1" target="humndak8_3n1T79xHsqS-26">
          <mxGeometry relative="1" as="geometry">
            <mxPoint x="371.03999999999996" y="321" as="sourcePoint" />
            <mxPoint x="520" y="240" as="targetPoint" />
          </mxGeometry>
        </mxCell>
        <mxCell id="humndak8_3n1T79xHsqS-33" value="&lt;b&gt;&lt;font style=&quot;font-size: 20px;&quot;&gt;Airline&lt;/font&gt;&lt;/b&gt;" style="whiteSpace=wrap;html=1;align=center;" vertex="1" parent="1">
          <mxGeometry x="230" y="320" width="190" height="50" as="geometry" />
        </mxCell>
        <mxCell id="humndak8_3n1T79xHsqS-34" value="" style="endArrow=none;html=1;rounded=0;entryX=0.67;entryY=1;entryDx=0;entryDy=0;exitX=0.119;exitY=0;exitDx=0;exitDy=0;exitPerimeter=0;entryPerimeter=0;" edge="1" parent="1" target="humndak8_3n1T79xHsqS-40">
          <mxGeometry width="50" height="50" relative="1" as="geometry">
            <mxPoint x="1129.04" y="320" as="sourcePoint" />
            <mxPoint x="1040" y="275" as="targetPoint" />
          </mxGeometry>
        </mxCell>
        <mxCell id="humndak8_3n1T79xHsqS-35" value="" style="endArrow=none;html=1;rounded=0;exitX=0.25;exitY=0;exitDx=0;exitDy=0;entryX=1;entryY=1;entryDx=0;entryDy=0;" edge="1" parent="1" source="humndak8_3n1T79xHsqS-44" target="humndak8_3n1T79xHsqS-41">
          <mxGeometry width="50" height="50" relative="1" as="geometry">
            <mxPoint x="1168.08" y="320" as="sourcePoint" />
            <mxPoint x="1080" y="230" as="targetPoint" />
          </mxGeometry>
        </mxCell>
        <mxCell id="humndak8_3n1T79xHsqS-36" value="" style="endArrow=none;html=1;rounded=0;exitX=0.389;exitY=0.02;exitDx=0;exitDy=0;entryX=0.693;entryY=1;entryDx=0;entryDy=0;exitPerimeter=0;entryPerimeter=0;" edge="1" parent="1" target="humndak8_3n1T79xHsqS-42" source="humndak8_3n1T79xHsqS-44">
          <mxGeometry width="50" height="50" relative="1" as="geometry">
            <mxPoint x="1208.08" y="319" as="sourcePoint" />
            <mxPoint x="1205" y="160" as="targetPoint" />
          </mxGeometry>
        </mxCell>
        <mxCell id="humndak8_3n1T79xHsqS-37" value="" style="endArrow=none;html=1;rounded=0;exitX=0.75;exitY=0;exitDx=0;exitDy=0;entryX=0.218;entryY=0.9;entryDx=0;entryDy=0;entryPerimeter=0;" edge="1" parent="1" target="humndak8_3n1T79xHsqS-39">
          <mxGeometry width="50" height="50" relative="1" as="geometry">
            <mxPoint x="1230" y="320" as="sourcePoint" />
            <mxPoint x="1274" y="237.5" as="targetPoint" />
          </mxGeometry>
        </mxCell>
        <mxCell id="humndak8_3n1T79xHsqS-38" value="&lt;font style=&quot;font-size: 18px;&quot;&gt;qualifications&lt;/font&gt;" style="ellipse;shape=doubleEllipse;margin=3;whiteSpace=wrap;html=1;align=center;" vertex="1" parent="1">
          <mxGeometry x="1275" y="260" width="172.5" height="40" as="geometry" />
        </mxCell>
        <mxCell id="humndak8_3n1T79xHsqS-39" value="&lt;font style=&quot;font-size: 18px;&quot;&gt;Idnumber&lt;/font&gt;" style="ellipse;whiteSpace=wrap;html=1;align=center;fontStyle=4;" vertex="1" parent="1">
          <mxGeometry x="1240" y="210" width="120" height="40" as="geometry" />
        </mxCell>
        <mxCell id="humndak8_3n1T79xHsqS-40" value="&lt;font style=&quot;font-size: 18px;&quot;&gt;Name&lt;/font&gt;" style="ellipse;whiteSpace=wrap;html=1;align=center;" vertex="1" parent="1">
          <mxGeometry x="960" y="260" width="100" height="40" as="geometry" />
        </mxCell>
        <mxCell id="humndak8_3n1T79xHsqS-41" value="&lt;font style=&quot;font-size: 18px;&quot;&gt;Address&lt;/font&gt;" style="ellipse;whiteSpace=wrap;html=1;align=center;" vertex="1" parent="1">
          <mxGeometry x="980" y="210" width="100" height="40" as="geometry" />
        </mxCell>
        <mxCell id="humndak8_3n1T79xHsqS-42" value="&lt;font style=&quot;font-size: 18px;&quot;&gt;Gender&lt;/font&gt;" style="ellipse;whiteSpace=wrap;html=1;align=center;" vertex="1" parent="1">
          <mxGeometry x="1000" y="165" width="112.5" height="40" as="geometry" />
        </mxCell>
        <mxCell id="humndak8_3n1T79xHsqS-43" value="" style="endArrow=none;html=1;rounded=0;exitX=0.819;exitY=0.02;exitDx=0;exitDy=0;exitPerimeter=0;entryX=0.388;entryY=1;entryDx=0;entryDy=0;entryPerimeter=0;" edge="1" parent="1" target="humndak8_3n1T79xHsqS-38">
          <mxGeometry relative="1" as="geometry">
            <mxPoint x="1241.04" y="321" as="sourcePoint" />
            <mxPoint x="1390" y="240" as="targetPoint" />
          </mxGeometry>
        </mxCell>
        <mxCell id="humndak8_3n1T79xHsqS-44" value="&lt;b&gt;&lt;font style=&quot;font-size: 20px;&quot;&gt;Employee&lt;/font&gt;&lt;/b&gt;" style="whiteSpace=wrap;html=1;align=center;" vertex="1" parent="1">
          <mxGeometry x="1100" y="320" width="190" height="50" as="geometry" />
        </mxCell>
        <mxCell id="humndak8_3n1T79xHsqS-45" value="&lt;font style=&quot;font-size: 18px;&quot;&gt;Position&lt;/font&gt;" style="ellipse;whiteSpace=wrap;html=1;align=center;" vertex="1" parent="1">
          <mxGeometry x="1100" y="200" width="112.5" height="40" as="geometry" />
        </mxCell>
        <mxCell id="humndak8_3n1T79xHsqS-46" value="" style="endArrow=none;html=1;rounded=0;exitX=0.5;exitY=1;exitDx=0;exitDy=0;" edge="1" parent="1" source="humndak8_3n1T79xHsqS-45">
          <mxGeometry relative="1" as="geometry">
            <mxPoint x="1170" y="240" as="sourcePoint" />
            <mxPoint x="1185" y="320" as="targetPoint" />
          </mxGeometry>
        </mxCell>
        <mxCell id="humndak8_3n1T79xHsqS-47" value="&lt;font style=&quot;font-size: 18px;&quot;&gt;Birthday&lt;/font&gt;" style="ellipse;whiteSpace=wrap;html=1;align=center;" vertex="1" parent="1">
          <mxGeometry x="1170" y="160" width="112.5" height="40" as="geometry" />
        </mxCell>
        <mxCell id="humndak8_3n1T79xHsqS-48" value="" style="endArrow=none;html=1;rounded=0;exitX=0.568;exitY=-0.02;exitDx=0;exitDy=0;exitPerimeter=0;entryX=0.5;entryY=1;entryDx=0;entryDy=0;" edge="1" parent="1" source="humndak8_3n1T79xHsqS-44" target="humndak8_3n1T79xHsqS-47">
          <mxGeometry relative="1" as="geometry">
            <mxPoint x="1170" y="240" as="sourcePoint" />
            <mxPoint x="1330" y="240" as="targetPoint" />
          </mxGeometry>
        </mxCell>
        <mxCell id="humndak8_3n1T79xHsqS-49" value="&lt;font style=&quot;font-size: 18px;&quot;&gt;year&lt;/font&gt;" style="ellipse;whiteSpace=wrap;html=1;align=center;" vertex="1" parent="1">
          <mxGeometry x="1275" y="90" width="112.5" height="30" as="geometry" />
        </mxCell>
        <mxCell id="humndak8_3n1T79xHsqS-50" value="&lt;font style=&quot;font-size: 18px;&quot;&gt;mounth&lt;/font&gt;" style="ellipse;whiteSpace=wrap;html=1;align=center;" vertex="1" parent="1">
          <mxGeometry x="1180" y="50" width="112.5" height="30" as="geometry" />
        </mxCell>
        <mxCell id="humndak8_3n1T79xHsqS-51" value="&lt;font style=&quot;font-size: 18px;&quot;&gt;day&lt;/font&gt;" style="ellipse;whiteSpace=wrap;html=1;align=center;" vertex="1" parent="1">
          <mxGeometry x="1112.5" y="100" width="112.5" height="30" as="geometry" />
        </mxCell>
        <mxCell id="humndak8_3n1T79xHsqS-53" value="" style="endArrow=none;html=1;rounded=0;exitX=0.5;exitY=1;exitDx=0;exitDy=0;entryX=0.267;entryY=0.025;entryDx=0;entryDy=0;entryPerimeter=0;" edge="1" parent="1" source="humndak8_3n1T79xHsqS-51" target="humndak8_3n1T79xHsqS-47">
          <mxGeometry relative="1" as="geometry">
            <mxPoint x="1170" y="240" as="sourcePoint" />
            <mxPoint x="1330" y="240" as="targetPoint" />
          </mxGeometry>
        </mxCell>
        <mxCell id="humndak8_3n1T79xHsqS-54" value="" style="endArrow=none;html=1;rounded=0;exitX=0.5;exitY=1;exitDx=0;exitDy=0;entryX=0.5;entryY=0;entryDx=0;entryDy=0;" edge="1" parent="1" source="humndak8_3n1T79xHsqS-50" target="humndak8_3n1T79xHsqS-47">
          <mxGeometry relative="1" as="geometry">
            <mxPoint x="1170" y="240" as="sourcePoint" />
            <mxPoint x="1330" y="240" as="targetPoint" />
          </mxGeometry>
        </mxCell>
        <mxCell id="humndak8_3n1T79xHsqS-55" value="" style="endArrow=none;html=1;rounded=0;exitX=0.764;exitY=0.075;exitDx=0;exitDy=0;exitPerimeter=0;entryX=0.5;entryY=1;entryDx=0;entryDy=0;" edge="1" parent="1" source="humndak8_3n1T79xHsqS-47" target="humndak8_3n1T79xHsqS-49">
          <mxGeometry relative="1" as="geometry">
            <mxPoint x="1170" y="240" as="sourcePoint" />
            <mxPoint x="1330" y="240" as="targetPoint" />
          </mxGeometry>
        </mxCell>
        <mxCell id="humndak8_3n1T79xHsqS-56" value="&lt;b&gt;&lt;font style=&quot;font-size: 18px;&quot;&gt;WorksIn&lt;/font&gt;&lt;/b&gt;" style="shape=rhombus;perimeter=rhombusPerimeter;whiteSpace=wrap;html=1;align=center;" vertex="1" parent="1">
          <mxGeometry x="670" y="315" width="120" height="60" as="geometry" />
        </mxCell>
        <mxCell id="humndak8_3n1T79xHsqS-57" value="" style="shape=link;html=1;rounded=0;entryX=0;entryY=0.5;entryDx=0;entryDy=0;exitX=1;exitY=0.5;exitDx=0;exitDy=0;" edge="1" parent="1" source="humndak8_3n1T79xHsqS-56" target="humndak8_3n1T79xHsqS-44">
          <mxGeometry relative="1" as="geometry">
            <mxPoint x="790" y="344.5" as="sourcePoint" />
            <mxPoint x="950" y="344.5" as="targetPoint" />
            <Array as="points">
              <mxPoint x="810" y="345" />
            </Array>
          </mxGeometry>
        </mxCell>
        <mxCell id="humndak8_3n1T79xHsqS-58" value="&lt;b&gt;&lt;font style=&quot;font-size: 14px;&quot;&gt;N&lt;/font&gt;&lt;/b&gt;" style="resizable=0;html=1;whiteSpace=wrap;align=right;verticalAlign=bottom;" connectable="0" vertex="1" parent="humndak8_3n1T79xHsqS-57">
          <mxGeometry x="1" relative="1" as="geometry">
            <mxPoint x="-10" as="offset" />
          </mxGeometry>
        </mxCell>
        <mxCell id="humndak8_3n1T79xHsqS-59" value="" style="shape=link;html=1;rounded=0;exitX=0;exitY=0.5;exitDx=0;exitDy=0;align=center;entryX=1;entryY=0.5;entryDx=0;entryDy=0;" edge="1" parent="1" source="humndak8_3n1T79xHsqS-56" target="humndak8_3n1T79xHsqS-33">
          <mxGeometry relative="1" as="geometry">
            <mxPoint x="670" y="240" as="sourcePoint" />
            <mxPoint x="430" y="345" as="targetPoint" />
          </mxGeometry>
        </mxCell>
        <mxCell id="humndak8_3n1T79xHsqS-60" value="&lt;b&gt;&lt;font style=&quot;font-size: 14px;&quot;&gt;1&lt;/font&gt;&lt;/b&gt;" style="resizable=0;html=1;whiteSpace=wrap;align=right;verticalAlign=bottom;" connectable="0" vertex="1" parent="humndak8_3n1T79xHsqS-59">
          <mxGeometry x="1" relative="1" as="geometry">
            <mxPoint x="20" as="offset" />
          </mxGeometry>
        </mxCell>
        <mxCell id="humndak8_3n1T79xHsqS-61" value="" style="endArrow=none;html=1;rounded=0;entryX=0.5;entryY=0;entryDx=0;entryDy=0;exitX=0.5;exitY=1;exitDx=0;exitDy=0;" edge="1" parent="1" target="humndak8_3n1T79xHsqS-67" source="humndak8_3n1T79xHsqS-71">
          <mxGeometry width="50" height="50" relative="1" as="geometry">
            <mxPoint x="259.03999999999996" y="720" as="sourcePoint" />
            <mxPoint x="170" y="675" as="targetPoint" />
          </mxGeometry>
        </mxCell>
        <mxCell id="humndak8_3n1T79xHsqS-62" value="" style="endArrow=none;html=1;rounded=0;entryX=0.75;entryY=1;entryDx=0;entryDy=0;exitX=0.5;exitY=0;exitDx=0;exitDy=0;" edge="1" parent="1" source="humndak8_3n1T79xHsqS-68" target="humndak8_3n1T79xHsqS-71">
          <mxGeometry width="50" height="50" relative="1" as="geometry">
            <mxPoint x="298.0799999999999" y="720" as="sourcePoint" />
            <mxPoint x="260" y="635" as="targetPoint" />
          </mxGeometry>
        </mxCell>
        <mxCell id="humndak8_3n1T79xHsqS-64" value="" style="endArrow=none;html=1;rounded=0;entryX=0.571;entryY=0.073;entryDx=0;entryDy=0;entryPerimeter=0;exitX=0.163;exitY=0.972;exitDx=0;exitDy=0;exitPerimeter=0;" edge="1" parent="1" target="humndak8_3n1T79xHsqS-66" source="humndak8_3n1T79xHsqS-71">
          <mxGeometry width="50" height="50" relative="1" as="geometry">
            <mxPoint x="290" y="810" as="sourcePoint" />
            <mxPoint x="404" y="637.5" as="targetPoint" />
            <Array as="points" />
          </mxGeometry>
        </mxCell>
        <mxCell id="humndak8_3n1T79xHsqS-66" value="&lt;font style=&quot;font-size: 18px;&quot;&gt;Idnumber&lt;/font&gt;" style="ellipse;whiteSpace=wrap;html=1;align=center;fontStyle=4;" vertex="1" parent="1">
          <mxGeometry x="160" y="830" width="130" height="40" as="geometry" />
        </mxCell>
        <mxCell id="humndak8_3n1T79xHsqS-67" value="&lt;font style=&quot;font-size: 18px;&quot;&gt;Capacity&lt;/font&gt;" style="ellipse;whiteSpace=wrap;html=1;align=center;" vertex="1" parent="1">
          <mxGeometry x="260" y="870" width="110" height="40" as="geometry" />
        </mxCell>
        <mxCell id="humndak8_3n1T79xHsqS-68" value="&lt;font style=&quot;font-size: 18px;&quot;&gt;Model&lt;/font&gt;" style="ellipse;whiteSpace=wrap;html=1;align=center;" vertex="1" parent="1">
          <mxGeometry x="340" y="830" width="100" height="40" as="geometry" />
        </mxCell>
        <mxCell id="humndak8_3n1T79xHsqS-71" value="&lt;b&gt;&lt;font style=&quot;font-size: 20px;&quot;&gt;Aircraft&lt;/font&gt;&lt;/b&gt;" style="whiteSpace=wrap;html=1;align=center;" vertex="1" parent="1">
          <mxGeometry x="230" y="720" width="190" height="50" as="geometry" />
        </mxCell>
        <mxCell id="humndak8_3n1T79xHsqS-74" value="&lt;b&gt;&lt;font style=&quot;font-size: 18px;&quot;&gt;Own&lt;/font&gt;&lt;/b&gt;" style="shape=rhombus;perimeter=rhombusPerimeter;whiteSpace=wrap;html=1;align=center;" vertex="1" parent="1">
          <mxGeometry x="260" y="520" width="120" height="60" as="geometry" />
        </mxCell>
        <mxCell id="humndak8_3n1T79xHsqS-75" value="" style="shape=link;html=1;rounded=0;entryX=0.464;entryY=1.049;entryDx=0;entryDy=0;exitX=0.5;exitY=0;exitDx=0;exitDy=0;entryPerimeter=0;" edge="1" parent="1" source="humndak8_3n1T79xHsqS-74" target="humndak8_3n1T79xHsqS-33">
          <mxGeometry relative="1" as="geometry">
            <mxPoint x="290" y="560" as="sourcePoint" />
            <mxPoint x="450" y="560" as="targetPoint" />
          </mxGeometry>
        </mxCell>
        <mxCell id="humndak8_3n1T79xHsqS-76" value="&lt;font style=&quot;font-size: 14px;&quot;&gt;&lt;b&gt;1&lt;/b&gt;&lt;/font&gt;" style="resizable=0;html=1;whiteSpace=wrap;align=right;verticalAlign=bottom;" connectable="0" vertex="1" parent="humndak8_3n1T79xHsqS-75">
          <mxGeometry x="1" relative="1" as="geometry">
            <mxPoint x="-10" y="20" as="offset" />
          </mxGeometry>
        </mxCell>
        <mxCell id="humndak8_3n1T79xHsqS-77" value="" style="shape=link;html=1;rounded=0;exitX=0.5;exitY=1;exitDx=0;exitDy=0;entryX=0.464;entryY=-0.037;entryDx=0;entryDy=0;entryPerimeter=0;" edge="1" parent="1" source="humndak8_3n1T79xHsqS-74" target="humndak8_3n1T79xHsqS-71">
          <mxGeometry relative="1" as="geometry">
            <mxPoint x="290" y="560" as="sourcePoint" />
            <mxPoint x="450" y="560" as="targetPoint" />
          </mxGeometry>
        </mxCell>
        <mxCell id="humndak8_3n1T79xHsqS-78" value="&lt;b&gt;&lt;font style=&quot;font-size: 14px;&quot;&gt;N&lt;/font&gt;&lt;/b&gt;" style="resizable=0;html=1;whiteSpace=wrap;align=right;verticalAlign=bottom;" connectable="0" vertex="1" parent="humndak8_3n1T79xHsqS-77">
          <mxGeometry x="1" relative="1" as="geometry">
            <mxPoint x="-11" y="2" as="offset" />
          </mxGeometry>
        </mxCell>
        <mxCell id="humndak8_3n1T79xHsqS-79" value="" style="endArrow=none;html=1;rounded=0;entryX=0.5;entryY=0;entryDx=0;entryDy=0;exitX=0.312;exitY=0.972;exitDx=0;exitDy=0;exitPerimeter=0;" edge="1" parent="1" source="humndak8_3n1T79xHsqS-85" target="humndak8_3n1T79xHsqS-83">
          <mxGeometry width="50" height="50" relative="1" as="geometry">
            <mxPoint x="1127.79" y="720" as="sourcePoint" />
            <mxPoint x="1038.75" y="675" as="targetPoint" />
          </mxGeometry>
        </mxCell>
        <mxCell id="humndak8_3n1T79xHsqS-80" value="" style="endArrow=none;html=1;rounded=0;entryX=0.5;entryY=1;entryDx=0;entryDy=0;exitX=0.5;exitY=0;exitDx=0;exitDy=0;" edge="1" parent="1" source="humndak8_3n1T79xHsqS-84" target="humndak8_3n1T79xHsqS-85">
          <mxGeometry width="50" height="50" relative="1" as="geometry">
            <mxPoint x="1166.83" y="720" as="sourcePoint" />
            <mxPoint x="1128.75" y="635" as="targetPoint" />
          </mxGeometry>
        </mxCell>
        <mxCell id="humndak8_3n1T79xHsqS-81" value="" style="endArrow=none;html=1;rounded=0;entryX=0.571;entryY=0.073;entryDx=0;entryDy=0;entryPerimeter=0;exitX=0.163;exitY=0.972;exitDx=0;exitDy=0;exitPerimeter=0;" edge="1" parent="1" source="humndak8_3n1T79xHsqS-85" target="humndak8_3n1T79xHsqS-82">
          <mxGeometry width="50" height="50" relative="1" as="geometry">
            <mxPoint x="1158.75" y="810" as="sourcePoint" />
            <mxPoint x="1272.75" y="637.5" as="targetPoint" />
            <Array as="points" />
          </mxGeometry>
        </mxCell>
        <mxCell id="humndak8_3n1T79xHsqS-82" value="&lt;font style=&quot;font-size: 18px;&quot;&gt;Idnumber&lt;/font&gt;" style="ellipse;whiteSpace=wrap;html=1;align=center;fontStyle=4;" vertex="1" parent="1">
          <mxGeometry x="960" y="840" width="130" height="40" as="geometry" />
        </mxCell>
        <mxCell id="humndak8_3n1T79xHsqS-83" value="&lt;font style=&quot;font-size: 18px;&quot;&gt;Origim&lt;/font&gt;" style="ellipse;whiteSpace=wrap;html=1;align=center;" vertex="1" parent="1">
          <mxGeometry x="1060" y="880" width="110" height="40" as="geometry" />
        </mxCell>
        <mxCell id="humndak8_3n1T79xHsqS-84" value="&lt;font style=&quot;font-size: 18px;&quot;&gt;Distination&lt;/font&gt;" style="ellipse;whiteSpace=wrap;html=1;align=center;" vertex="1" parent="1">
          <mxGeometry x="1140" y="930" width="100" height="40" as="geometry" />
        </mxCell>
        <mxCell id="humndak8_3n1T79xHsqS-85" value="&lt;b&gt;&lt;font style=&quot;font-size: 20px;&quot;&gt;Route&lt;/font&gt;&lt;/b&gt;" style="whiteSpace=wrap;html=1;align=center;" vertex="1" parent="1">
          <mxGeometry x="1098.75" y="720" width="190" height="50" as="geometry" />
        </mxCell>
        <mxCell id="humndak8_3n1T79xHsqS-87" value="&lt;font style=&quot;font-size: 18px;&quot;&gt;Distance&lt;/font&gt;" style="ellipse;whiteSpace=wrap;html=1;align=center;" vertex="1" parent="1">
          <mxGeometry x="1200" y="880" width="100" height="40" as="geometry" />
        </mxCell>
        <mxCell id="humndak8_3n1T79xHsqS-88" value="&lt;font style=&quot;font-size: 18px;&quot;&gt;classification&lt;/font&gt;" style="ellipse;whiteSpace=wrap;html=1;align=center;" vertex="1" parent="1">
          <mxGeometry x="1257.5" y="830" width="130" height="40" as="geometry" />
        </mxCell>
        <mxCell id="humndak8_3n1T79xHsqS-90" value="" style="endArrow=none;html=1;rounded=0;exitX=0.5;exitY=0;exitDx=0;exitDy=0;entryX=0.638;entryY=1.03;entryDx=0;entryDy=0;entryPerimeter=0;" edge="1" parent="1" source="humndak8_3n1T79xHsqS-87" target="humndak8_3n1T79xHsqS-85">
          <mxGeometry relative="1" as="geometry">
            <mxPoint x="1140" y="740" as="sourcePoint" />
            <mxPoint x="1300" y="740" as="targetPoint" />
          </mxGeometry>
        </mxCell>
        <mxCell id="humndak8_3n1T79xHsqS-93" value="" style="endArrow=none;html=1;rounded=0;exitX=0.5;exitY=0;exitDx=0;exitDy=0;entryX=0.889;entryY=1.03;entryDx=0;entryDy=0;entryPerimeter=0;" edge="1" parent="1" source="humndak8_3n1T79xHsqS-88" target="humndak8_3n1T79xHsqS-85">
          <mxGeometry relative="1" as="geometry">
            <mxPoint x="1140" y="740" as="sourcePoint" />
            <mxPoint x="1300" y="740" as="targetPoint" />
          </mxGeometry>
        </mxCell>
        <mxCell id="humndak8_3n1T79xHsqS-94" value="&lt;b&gt;&lt;font style=&quot;font-size: 18px;&quot;&gt;Assign&lt;/font&gt;&lt;/b&gt;" style="shape=rhombus;perimeter=rhombusPerimeter;whiteSpace=wrap;html=1;align=center;" vertex="1" parent="1">
          <mxGeometry x="660" y="715" width="120" height="60" as="geometry" />
        </mxCell>
        <mxCell id="humndak8_3n1T79xHsqS-95" value="" style="endArrow=none;html=1;rounded=0;exitX=1;exitY=0.5;exitDx=0;exitDy=0;entryX=0;entryY=0.5;entryDx=0;entryDy=0;" edge="1" parent="1" source="humndak8_3n1T79xHsqS-71" target="humndak8_3n1T79xHsqS-94">
          <mxGeometry relative="1" as="geometry">
            <mxPoint x="610" y="740" as="sourcePoint" />
            <mxPoint x="770" y="740" as="targetPoint" />
          </mxGeometry>
        </mxCell>
        <mxCell id="humndak8_3n1T79xHsqS-96" value="&lt;b&gt;&lt;font style=&quot;font-size: 14px;&quot;&gt;M&lt;/font&gt;&lt;/b&gt;" style="resizable=0;html=1;whiteSpace=wrap;align=left;verticalAlign=bottom;" connectable="0" vertex="1" parent="humndak8_3n1T79xHsqS-95">
          <mxGeometry x="-1" relative="1" as="geometry">
            <mxPoint x="5" as="offset" />
          </mxGeometry>
        </mxCell>
        <mxCell id="humndak8_3n1T79xHsqS-99" value="" style="endArrow=none;html=1;rounded=0;entryX=0;entryY=0.5;entryDx=0;entryDy=0;" edge="1" parent="1" target="humndak8_3n1T79xHsqS-85">
          <mxGeometry relative="1" as="geometry">
            <mxPoint x="780" y="744.52" as="sourcePoint" />
            <mxPoint x="940" y="744.52" as="targetPoint" />
          </mxGeometry>
        </mxCell>
        <mxCell id="humndak8_3n1T79xHsqS-100" value="&lt;b&gt;&lt;font style=&quot;font-size: 14px;&quot;&gt;N&lt;/font&gt;&lt;/b&gt;" style="resizable=0;html=1;whiteSpace=wrap;align=right;verticalAlign=bottom;" connectable="0" vertex="1" parent="humndak8_3n1T79xHsqS-99">
          <mxGeometry x="1" relative="1" as="geometry">
            <mxPoint x="-9" as="offset" />
          </mxGeometry>
        </mxCell>
        <mxCell id="humndak8_3n1T79xHsqS-101" value="&lt;font style=&quot;font-size: 18px;&quot;&gt;PassengerNumber&lt;/font&gt;" style="ellipse;whiteSpace=wrap;html=1;align=center;" vertex="1" parent="1">
          <mxGeometry x="450" y="790" width="190" height="40" as="geometry" />
        </mxCell>
        <mxCell id="humndak8_3n1T79xHsqS-102" value="&lt;font style=&quot;font-size: 18px;&quot;&gt;PricePerPassengers&lt;/font&gt;" style="ellipse;whiteSpace=wrap;html=1;align=center;" vertex="1" parent="1">
          <mxGeometry x="500" y="840" width="200" height="40" as="geometry" />
        </mxCell>
        <mxCell id="humndak8_3n1T79xHsqS-103" value="&lt;font style=&quot;font-size: 18px;&quot;&gt;DepartureDateTime&lt;/font&gt;" style="ellipse;whiteSpace=wrap;html=1;align=center;" vertex="1" parent="1">
          <mxGeometry x="610" y="890" width="200" height="40" as="geometry" />
        </mxCell>
        <mxCell id="humndak8_3n1T79xHsqS-104" value="&lt;font style=&quot;font-size: 18px;&quot;&gt;ArrivalDateTime&lt;/font&gt;" style="ellipse;whiteSpace=wrap;html=1;align=center;" vertex="1" parent="1">
          <mxGeometry x="730" y="850" width="170" height="40" as="geometry" />
        </mxCell>
        <mxCell id="humndak8_3n1T79xHsqS-105" value="&lt;font style=&quot;font-size: 18px;&quot;&gt;TimeSpent&lt;/font&gt;" style="ellipse;whiteSpace=wrap;html=1;align=center;dashed=1;" vertex="1" parent="1">
          <mxGeometry x="800" y="800" width="120" height="40" as="geometry" />
        </mxCell>
        <mxCell id="humndak8_3n1T79xHsqS-106" value="" style="endArrow=none;html=1;rounded=0;exitX=0.589;exitY=-0.011;exitDx=0;exitDy=0;exitPerimeter=0;entryX=0.103;entryY=0.624;entryDx=0;entryDy=0;entryPerimeter=0;" edge="1" parent="1" source="humndak8_3n1T79xHsqS-101" target="humndak8_3n1T79xHsqS-94">
          <mxGeometry relative="1" as="geometry">
            <mxPoint x="610" y="740" as="sourcePoint" />
            <mxPoint x="770" y="740" as="targetPoint" />
          </mxGeometry>
        </mxCell>
        <mxCell id="humndak8_3n1T79xHsqS-107" value="" style="endArrow=none;html=1;rounded=0;exitX=0.724;exitY=0.025;exitDx=0;exitDy=0;exitPerimeter=0;entryX=0;entryY=1;entryDx=0;entryDy=0;" edge="1" parent="1" source="humndak8_3n1T79xHsqS-102" target="humndak8_3n1T79xHsqS-94">
          <mxGeometry relative="1" as="geometry">
            <mxPoint x="610" y="740" as="sourcePoint" />
            <mxPoint x="770" y="740" as="targetPoint" />
          </mxGeometry>
        </mxCell>
        <mxCell id="humndak8_3n1T79xHsqS-108" value="" style="endArrow=none;html=1;rounded=0;exitX=0.5;exitY=0;exitDx=0;exitDy=0;entryX=0.5;entryY=1;entryDx=0;entryDy=0;" edge="1" parent="1" source="humndak8_3n1T79xHsqS-103" target="humndak8_3n1T79xHsqS-94">
          <mxGeometry relative="1" as="geometry">
            <mxPoint x="610" y="740" as="sourcePoint" />
            <mxPoint x="770" y="740" as="targetPoint" />
          </mxGeometry>
        </mxCell>
        <mxCell id="humndak8_3n1T79xHsqS-109" value="" style="endArrow=none;html=1;rounded=0;entryX=1;entryY=1;entryDx=0;entryDy=0;" edge="1" parent="1" source="humndak8_3n1T79xHsqS-104" target="humndak8_3n1T79xHsqS-94">
          <mxGeometry relative="1" as="geometry">
            <mxPoint x="610" y="740" as="sourcePoint" />
            <mxPoint x="750" y="760" as="targetPoint" />
          </mxGeometry>
        </mxCell>
        <mxCell id="humndak8_3n1T79xHsqS-110" value="" style="endArrow=none;html=1;rounded=0;entryX=0;entryY=0;entryDx=0;entryDy=0;exitX=0.905;exitY=0.592;exitDx=0;exitDy=0;exitPerimeter=0;" edge="1" parent="1" source="humndak8_3n1T79xHsqS-94" target="humndak8_3n1T79xHsqS-105">
          <mxGeometry relative="1" as="geometry">
            <mxPoint x="610" y="740" as="sourcePoint" />
            <mxPoint x="770" y="740" as="targetPoint" />
          </mxGeometry>
        </mxCell>
        <mxCell id="humndak8_3n1T79xHsqS-111" value="" style="endArrow=none;html=1;rounded=0;entryX=0.5;entryY=0;entryDx=0;entryDy=0;exitX=0.312;exitY=0.972;exitDx=0;exitDy=0;exitPerimeter=0;" edge="1" parent="1" target="humndak8_3n1T79xHsqS-115">
          <mxGeometry width="50" height="50" relative="1" as="geometry">
            <mxPoint x="-421.9699999999998" y="768.5999999999999" as="sourcePoint" />
            <mxPoint x="-541.25" y="675" as="targetPoint" />
          </mxGeometry>
        </mxCell>
        <mxCell id="humndak8_3n1T79xHsqS-112" value="" style="endArrow=none;html=1;rounded=0;entryX=0.5;entryY=1;entryDx=0;entryDy=0;exitX=0.5;exitY=0;exitDx=0;exitDy=0;" edge="1" parent="1" source="humndak8_3n1T79xHsqS-116">
          <mxGeometry width="50" height="50" relative="1" as="geometry">
            <mxPoint x="-413.1700000000001" y="720" as="sourcePoint" />
            <mxPoint x="-386.25" y="770" as="targetPoint" />
          </mxGeometry>
        </mxCell>
        <mxCell id="humndak8_3n1T79xHsqS-115" value="&lt;font style=&quot;font-size: 18px;&quot;&gt;MajorPilot&lt;/font&gt;" style="ellipse;whiteSpace=wrap;html=1;align=center;" vertex="1" parent="1">
          <mxGeometry x="-560" y="840" width="110" height="40" as="geometry" />
        </mxCell>
        <mxCell id="humndak8_3n1T79xHsqS-116" value="&lt;font style=&quot;font-size: 18px;&quot;&gt;AssistantPilot&lt;/font&gt;" style="ellipse;whiteSpace=wrap;html=1;align=center;" vertex="1" parent="1">
          <mxGeometry x="-490" y="880" width="140" height="40" as="geometry" />
        </mxCell>
        <mxCell id="humndak8_3n1T79xHsqS-118" value="&lt;font style=&quot;font-size: 18px;&quot;&gt;Hostess1&lt;/font&gt;" style="ellipse;whiteSpace=wrap;html=1;align=center;" vertex="1" parent="1">
          <mxGeometry x="-380" y="920" width="110" height="40" as="geometry" />
        </mxCell>
        <mxCell id="humndak8_3n1T79xHsqS-119" value="&lt;font style=&quot;font-size: 18px;&quot;&gt;Hostess2&lt;/font&gt;" style="ellipse;whiteSpace=wrap;html=1;align=center;" vertex="1" parent="1">
          <mxGeometry x="-320" y="840" width="112.5" height="40" as="geometry" />
        </mxCell>
        <mxCell id="humndak8_3n1T79xHsqS-120" value="" style="endArrow=none;html=1;rounded=0;exitX=0.5;exitY=0;exitDx=0;exitDy=0;entryX=0.638;entryY=1.03;entryDx=0;entryDy=0;entryPerimeter=0;" edge="1" parent="1" source="humndak8_3n1T79xHsqS-118">
          <mxGeometry relative="1" as="geometry">
            <mxPoint x="-440" y="740" as="sourcePoint" />
            <mxPoint x="-360.02999999999975" y="771.5" as="targetPoint" />
          </mxGeometry>
        </mxCell>
        <mxCell id="humndak8_3n1T79xHsqS-121" value="" style="endArrow=none;html=1;rounded=0;exitX=0.5;exitY=0;exitDx=0;exitDy=0;entryX=0.889;entryY=1.03;entryDx=0;entryDy=0;entryPerimeter=0;" edge="1" parent="1" source="humndak8_3n1T79xHsqS-119">
          <mxGeometry relative="1" as="geometry">
            <mxPoint x="-440" y="740" as="sourcePoint" />
            <mxPoint x="-312.3399999999999" y="771.5" as="targetPoint" />
          </mxGeometry>
        </mxCell>
        <mxCell id="humndak8_3n1T79xHsqS-123" value="&lt;font size=&quot;1&quot;&gt;&lt;b&gt;&lt;font style=&quot;font-size: 20px;&quot;&gt;Crew&lt;/font&gt;&lt;/b&gt;&lt;/font&gt;" style="shape=ext;margin=3;double=1;whiteSpace=wrap;html=1;align=center;" vertex="1" parent="1">
          <mxGeometry x="-470" y="720" width="190" height="50" as="geometry" />
        </mxCell>
        <mxCell id="humndak8_3n1T79xHsqS-125" value="&lt;b&gt;&lt;font style=&quot;font-size: 18px;&quot;&gt;has&lt;/font&gt;&lt;/b&gt;" style="shape=rhombus;double=1;perimeter=rhombusPerimeter;whiteSpace=wrap;html=1;align=center;" vertex="1" parent="1">
          <mxGeometry x="-100" y="715" width="120" height="60" as="geometry" />
        </mxCell>
        <mxCell id="humndak8_3n1T79xHsqS-126" value="" style="shape=link;html=1;rounded=0;entryX=1;entryY=0.5;entryDx=0;entryDy=0;exitX=0;exitY=0.5;exitDx=0;exitDy=0;" edge="1" parent="1" source="humndak8_3n1T79xHsqS-125" target="humndak8_3n1T79xHsqS-123">
          <mxGeometry relative="1" as="geometry">
            <mxPoint x="-200" y="790" as="sourcePoint" />
            <mxPoint x="-40" y="790" as="targetPoint" />
          </mxGeometry>
        </mxCell>
        <mxCell id="humndak8_3n1T79xHsqS-127" value="&lt;font style=&quot;font-size: 14px;&quot;&gt;&lt;b&gt;1&lt;/b&gt;&lt;/font&gt;" style="resizable=0;html=1;whiteSpace=wrap;align=right;verticalAlign=bottom;" connectable="0" vertex="1" parent="humndak8_3n1T79xHsqS-126">
          <mxGeometry x="1" relative="1" as="geometry">
            <mxPoint x="16" as="offset" />
          </mxGeometry>
        </mxCell>
        <mxCell id="humndak8_3n1T79xHsqS-128" value="" style="shape=link;html=1;rounded=0;exitX=1;exitY=0.5;exitDx=0;exitDy=0;entryX=0;entryY=0.5;entryDx=0;entryDy=0;" edge="1" parent="1" source="humndak8_3n1T79xHsqS-125" target="humndak8_3n1T79xHsqS-71">
          <mxGeometry relative="1" as="geometry">
            <mxPoint x="-200" y="790" as="sourcePoint" />
            <mxPoint x="-40" y="790" as="targetPoint" />
          </mxGeometry>
        </mxCell>
        <mxCell id="humndak8_3n1T79xHsqS-129" value="&lt;b&gt;&lt;font style=&quot;font-size: 14px;&quot;&gt;1&lt;/font&gt;&lt;/b&gt;" style="resizable=0;html=1;whiteSpace=wrap;align=right;verticalAlign=bottom;" connectable="0" vertex="1" parent="humndak8_3n1T79xHsqS-128">
          <mxGeometry x="1" relative="1" as="geometry">
            <mxPoint x="-5" as="offset" />
          </mxGeometry>
        </mxCell>
        <mxCell id="humndak8_3n1T79xHsqS-130" value="" style="endArrow=none;html=1;rounded=0;entryX=0.5;entryY=0;entryDx=0;entryDy=0;exitX=0.312;exitY=0.972;exitDx=0;exitDy=0;exitPerimeter=0;" edge="1" parent="1" source="humndak8_3n1T79xHsqS-136" target="humndak8_3n1T79xHsqS-134">
          <mxGeometry width="50" height="50" relative="1" as="geometry">
            <mxPoint x="-442.21000000000004" y="320" as="sourcePoint" />
            <mxPoint x="-531.25" y="275" as="targetPoint" />
          </mxGeometry>
        </mxCell>
        <mxCell id="humndak8_3n1T79xHsqS-132" value="" style="endArrow=none;html=1;rounded=0;entryX=0.571;entryY=0.073;entryDx=0;entryDy=0;entryPerimeter=0;exitX=0.163;exitY=0.972;exitDx=0;exitDy=0;exitPerimeter=0;" edge="1" parent="1" source="humndak8_3n1T79xHsqS-136" target="humndak8_3n1T79xHsqS-133">
          <mxGeometry width="50" height="50" relative="1" as="geometry">
            <mxPoint x="-411.25" y="410" as="sourcePoint" />
            <mxPoint x="-297.25" y="237.5" as="targetPoint" />
            <Array as="points" />
          </mxGeometry>
        </mxCell>
        <mxCell id="humndak8_3n1T79xHsqS-133" value="&lt;font style=&quot;font-size: 18px;&quot;&gt;Idnumber&lt;/font&gt;" style="ellipse;whiteSpace=wrap;html=1;align=center;fontStyle=4;" vertex="1" parent="1">
          <mxGeometry x="-620" y="240" width="130" height="40" as="geometry" />
        </mxCell>
        <mxCell id="humndak8_3n1T79xHsqS-134" value="&lt;font style=&quot;font-size: 18px;&quot;&gt;Date&lt;/font&gt;" style="ellipse;whiteSpace=wrap;html=1;align=center;" vertex="1" parent="1">
          <mxGeometry x="-480" y="240" width="110" height="40" as="geometry" />
        </mxCell>
        <mxCell id="humndak8_3n1T79xHsqS-136" value="&lt;b&gt;&lt;font style=&quot;font-size: 20px;&quot;&gt;Buy/SellTranscations&lt;/font&gt;&lt;/b&gt;" style="whiteSpace=wrap;html=1;align=center;" vertex="1" parent="1">
          <mxGeometry x="-511.25" y="320" width="231.25" height="50" as="geometry" />
        </mxCell>
        <mxCell id="humndak8_3n1T79xHsqS-137" value="&lt;font style=&quot;font-size: 18px;&quot;&gt;Description&lt;/font&gt;" style="ellipse;whiteSpace=wrap;html=1;align=center;" vertex="1" parent="1">
          <mxGeometry x="-330" y="240" width="100" height="40" as="geometry" />
        </mxCell>
        <mxCell id="humndak8_3n1T79xHsqS-138" value="&lt;font style=&quot;font-size: 18px;&quot;&gt;AmountOfMonyPaid/Received&lt;/font&gt;" style="ellipse;whiteSpace=wrap;html=1;align=center;" vertex="1" parent="1">
          <mxGeometry x="-500" y="180" width="302.5" height="40" as="geometry" />
        </mxCell>
        <mxCell id="humndak8_3n1T79xHsqS-139" value="" style="endArrow=none;html=1;rounded=0;exitX=0.5;exitY=1;exitDx=0;exitDy=0;entryX=0.75;entryY=0;entryDx=0;entryDy=0;" edge="1" parent="1" source="humndak8_3n1T79xHsqS-137" target="humndak8_3n1T79xHsqS-136">
          <mxGeometry relative="1" as="geometry">
            <mxPoint x="-430" y="340" as="sourcePoint" />
            <mxPoint x="-180" y="370" as="targetPoint" />
          </mxGeometry>
        </mxCell>
        <mxCell id="humndak8_3n1T79xHsqS-140" value="" style="endArrow=none;html=1;rounded=0;exitX=0.5;exitY=1;exitDx=0;exitDy=0;entryX=0.594;entryY=-0.025;entryDx=0;entryDy=0;entryPerimeter=0;" edge="1" parent="1" source="humndak8_3n1T79xHsqS-138" target="humndak8_3n1T79xHsqS-136">
          <mxGeometry relative="1" as="geometry">
            <mxPoint x="-430" y="340" as="sourcePoint" />
            <mxPoint x="-270" y="340" as="targetPoint" />
          </mxGeometry>
        </mxCell>
        <mxCell id="humndak8_3n1T79xHsqS-142" value="&lt;div style=&quot;font-size: 16px;&quot;&gt;&lt;font style=&quot;font-size: 16px;&quot;&gt;&lt;b&gt;&lt;font style=&quot;font-size: 16px;&quot;&gt;Keep&lt;/font&gt;&lt;/b&gt;&lt;/font&gt;&lt;/div&gt;&lt;div style=&quot;font-size: 16px;&quot;&gt;&lt;font style=&quot;font-size: 16px;&quot;&gt;&lt;b&gt;&lt;font style=&quot;font-size: 16px;&quot;&gt;Information&lt;/font&gt;&lt;/b&gt;&lt;/font&gt;&lt;/div&gt;" style="shape=rhombus;perimeter=rhombusPerimeter;whiteSpace=wrap;html=1;align=center;" vertex="1" parent="1">
          <mxGeometry x="-107.5" y="307.5" width="135" height="75" as="geometry" />
        </mxCell>
        <mxCell id="humndak8_3n1T79xHsqS-143" value="" style="shape=link;html=1;rounded=0;entryX=0;entryY=0.5;entryDx=0;entryDy=0;exitX=1;exitY=0.5;exitDx=0;exitDy=0;" edge="1" parent="1" source="humndak8_3n1T79xHsqS-142" target="humndak8_3n1T79xHsqS-33">
          <mxGeometry relative="1" as="geometry">
            <mxPoint x="-230" y="630" as="sourcePoint" />
            <mxPoint x="-70" y="630" as="targetPoint" />
          </mxGeometry>
        </mxCell>
        <mxCell id="humndak8_3n1T79xHsqS-144" value="&lt;b&gt;&lt;font style=&quot;font-size: 14px;&quot;&gt;1&lt;/font&gt;&lt;/b&gt;" style="resizable=0;html=1;whiteSpace=wrap;align=right;verticalAlign=bottom;" connectable="0" vertex="1" parent="humndak8_3n1T79xHsqS-143">
          <mxGeometry x="1" relative="1" as="geometry">
            <mxPoint x="-5" as="offset" />
          </mxGeometry>
        </mxCell>
        <mxCell id="humndak8_3n1T79xHsqS-145" value="" style="shape=link;html=1;rounded=0;entryX=1;entryY=0.5;entryDx=0;entryDy=0;" edge="1" parent="1" target="humndak8_3n1T79xHsqS-136">
          <mxGeometry relative="1" as="geometry">
            <mxPoint x="-110" y="345" as="sourcePoint" />
            <mxPoint x="-70" y="520" as="targetPoint" />
          </mxGeometry>
        </mxCell>
        <mxCell id="humndak8_3n1T79xHsqS-146" value="&lt;b&gt;&lt;font style=&quot;font-size: 14px;&quot;&gt;N&lt;/font&gt;&lt;/b&gt;" style="resizable=0;html=1;whiteSpace=wrap;align=right;verticalAlign=bottom;" connectable="0" vertex="1" parent="humndak8_3n1T79xHsqS-145">
          <mxGeometry x="1" relative="1" as="geometry">
            <mxPoint x="16" as="offset" />
          </mxGeometry>
        </mxCell>
      </root>
    </mxGraphModel>
  </diagram>
</mxfile>
